<svg width="193" height="36" viewBox="0 0 193 36" fill="none" xmlns="http://www.w3.org/2000/svg">
<path d="M32.741 23.182H3.07266V6.76054C3.07266 5.58281 4.02891 4.62656 5.20664 4.62656H30.6105C31.7883 4.62656 32.7445 5.58281 32.7445 6.76054V23.182H32.741Z" fill="#EDF2FB"/>
<path d="M32.741 23.6391H3.07266C2.81953 23.6391 2.61563 23.4352 2.61563 23.182V6.76054C2.61563 5.3332 3.77578 4.16953 5.20664 4.16953H30.6105C32.0379 4.16953 33.2016 5.32968 33.2016 6.76054V23.182C33.198 23.4352 32.9941 23.6391 32.741 23.6391ZM3.52969 22.725H32.284V6.76054C32.284 5.83593 31.5316 5.08359 30.607 5.08359H5.20664C4.28203 5.08359 3.52969 5.83593 3.52969 6.76054V22.725Z" fill="#282828"/>
<path d="M30.607 26.7961H5.20664C4.02891 26.7961 3.07266 25.8398 3.07266 24.6621V22.9043H32.741V24.6621C32.741 25.8434 31.7848 26.7961 30.607 26.7961Z" fill="#B2C8BA"/>
<path d="M30.607 27.2531H5.20664C3.7793 27.2531 2.61563 26.093 2.61563 24.6621V22.4473H33.198V24.6621C33.198 26.093 32.0379 27.2531 30.607 27.2531ZM3.52969 23.3648V24.6656C3.52969 25.5902 4.28203 26.3426 5.20664 26.3426H30.6105C31.5352 26.3426 32.2875 25.5902 32.2875 24.6656V23.3648H3.52969Z" fill="#282828"/>
<path d="M16.977 24.6199C16.977 24.867 17.0751 25.104 17.2498 25.2787C17.4245 25.4534 17.6615 25.5516 17.9086 25.5516C18.1557 25.5516 18.3926 25.4534 18.5674 25.2787C18.7421 25.104 18.8402 24.867 18.8402 24.6199C18.8402 24.3728 18.7421 24.1359 18.5674 23.9611C18.3926 23.7864 18.1557 23.6883 17.9086 23.6883C17.6615 23.6883 17.4245 23.7864 17.2498 23.9611C17.0751 24.1359 16.977 24.3728 16.977 24.6199Z" fill="#EDF2FB"/>
<path d="M8.54297 12.4242C8.54297 13.3799 8.92262 14.2965 9.59841 14.9723C10.2742 15.6481 11.1908 16.0277 12.1465 16.0277C13.1022 16.0277 14.0188 15.6481 14.6946 14.9723C15.3703 14.2965 15.75 13.3799 15.75 12.4242C15.75 11.4685 15.3703 10.5519 14.6946 9.87616C14.0188 9.20036 13.1022 8.82071 12.1465 8.82071C11.1908 8.82071 10.2742 9.20036 9.59841 9.87616C8.92262 10.5519 8.54297 11.4685 8.54297 12.4242Z" fill="#EDF2FB"/>
<path d="M12.1465 16.4848C9.90703 16.4848 8.08594 14.6637 8.08594 12.4242C8.08594 10.1848 9.90703 8.36368 12.1465 8.36368C14.3859 8.36368 16.207 10.1848 16.207 12.4242C16.207 14.6637 14.3895 16.4848 12.1465 16.4848ZM12.1465 9.27422C10.4098 9.27422 9 10.6875 9 12.4207C9 14.1539 10.4133 15.5672 12.1465 15.5672C13.8797 15.5672 15.293 14.1539 15.293 12.4207C15.293 10.6875 13.8832 9.27422 12.1465 9.27422Z" fill="#B2C8BA"/>
<path d="M11.1516 12.4242C11.1516 12.6881 11.2564 12.9411 11.443 13.1277C11.6296 13.3143 11.8826 13.4191 12.1465 13.4191C12.4104 13.4191 12.6634 13.3143 12.85 13.1277C13.0366 12.9411 13.1414 12.6881 13.1414 12.4242C13.1414 12.1603 13.0366 11.9073 12.85 11.7207C12.6634 11.5341 12.4104 11.4293 12.1465 11.4293C11.8826 11.4293 11.6296 11.5341 11.443 11.7207C11.2564 11.9073 11.1516 12.1603 11.1516 12.4242Z" fill="#282828"/>
<path d="M20.0637 12.4242C20.0637 13.3799 20.4433 14.2965 21.1191 14.9723C21.7949 15.6481 22.7115 16.0277 23.6672 16.0277C24.6229 16.0277 25.5395 15.6481 26.2153 14.9723C26.891 14.2965 27.2707 13.3799 27.2707 12.4242C27.2707 11.4685 26.891 10.5519 26.2153 9.87616C25.5395 9.20036 24.6229 8.82071 23.6672 8.82071C22.7115 8.82071 21.7949 9.20036 21.1191 9.87616C20.4433 10.5519 20.0637 11.4685 20.0637 12.4242Z" fill="#EDF2FB"/>
<path d="M23.6672 16.4848C21.4277 16.4848 19.6066 14.6637 19.6066 12.4242C19.6066 10.1848 21.4277 8.36368 23.6672 8.36368C25.9066 8.36368 27.7277 10.1848 27.7277 12.4242C27.7277 14.6637 25.9066 16.4848 23.6672 16.4848ZM23.6672 9.27422C21.9305 9.27422 20.5207 10.6875 20.5207 12.4207C20.5207 14.1539 21.934 15.5672 23.6672 15.5672C25.4004 15.5672 26.8137 14.1539 26.8137 12.4207C26.8137 10.6875 25.4004 9.27422 23.6672 9.27422Z" fill="#B2C8BA"/>
<path d="M22.6723 12.4242C22.6723 12.6881 22.7771 12.9411 22.9637 13.1277C23.1503 13.3143 23.4033 13.4191 23.6672 13.4191C23.9311 13.4191 24.1841 13.3143 24.3707 13.1277C24.5573 12.9411 24.6621 12.6881 24.6621 12.4242C24.6621 12.1603 24.5573 11.9073 24.3707 11.7207C24.1841 11.5341 23.9311 11.4293 23.6672 11.4293C23.4033 11.4293 23.1503 11.5341 22.9637 11.7207C22.7771 11.9073 22.6723 12.1603 22.6723 12.4242Z" fill="#282828"/>
<path d="M19.7191 16.3687C19.7191 17.3637 18.9035 18.1793 17.9086 18.1793C16.9137 18.1793 16.098 17.3637 16.098 16.3687" fill="#EDF2FB"/>
<path d="M17.9086 18.6398C16.657 18.6398 15.641 17.6203 15.641 16.3723C15.641 16.1191 15.8449 15.9152 16.098 15.9152C16.3512 15.9152 16.5551 16.1191 16.5551 16.3723C16.5551 17.1211 17.1633 17.7258 17.9086 17.7258C18.6574 17.7258 19.2621 17.1176 19.2621 16.3723C19.2621 16.1191 19.466 15.9152 19.7191 15.9152C19.9723 15.9152 20.1762 16.1191 20.1762 16.3723C20.1762 17.6203 19.1566 18.6398 17.9086 18.6398Z" fill="#282828"/>
<path d="M14.8922 26.7961H20.9215V29.9461H14.8922V26.7961Z" fill="#EDF2FB"/>
<path d="M20.9215 30.4031H14.8922C14.6391 30.4031 14.4352 30.1992 14.4352 29.9461V26.7961C14.4352 26.543 14.6391 26.3391 14.8922 26.3391H20.9215C21.1746 26.3391 21.3785 26.543 21.3785 26.7961V29.9461C21.3785 30.1992 21.1746 30.4031 20.9215 30.4031ZM15.3492 29.489H20.4645V27.2531H15.3492V29.489Z" fill="#282828"/>
<path d="M23.4598 31.602H12.3539C11.693 31.602 11.1516 31.0605 11.1516 30.3996C11.1516 29.7387 11.693 29.1973 12.3539 29.1973H23.4562C24.1172 29.1973 24.6586 29.7387 24.6586 30.3996C24.6586 31.0641 24.1207 31.602 23.4598 31.602Z" fill="#EDF2FB"/>
<path d="M23.4598 32.059H12.3539C11.4398 32.059 10.6945 31.3137 10.6945 30.3996C10.6945 29.4855 11.4398 28.7402 12.3539 28.7402H23.4562C24.3703 28.7402 25.1156 29.4855 25.1156 30.3996C25.1156 31.3137 24.3738 32.059 23.4598 32.059ZM12.3539 29.6578C11.9426 29.6578 11.6086 29.9918 11.6086 30.4031C11.6086 30.8145 11.9426 31.1484 12.3539 31.1484H23.4562C23.8676 31.1484 24.2016 30.8145 24.2016 30.4031C24.2016 29.9918 23.8676 29.6578 23.4562 29.6578H12.3539Z" fill="#282828"/>
<path d="M51.184 26.5C49.968 26.5 49.024 26.18 48.352 25.54C47.68 24.9 47.344 24.004 47.344 22.852V13.252C47.344 12.132 47.664 11.26 48.304 10.636C48.96 10.012 49.864 9.7 51.016 9.7H54.376C56.216 9.7 57.808 10.036 59.152 10.708C60.496 11.38 61.52 12.348 62.224 13.612C62.944 14.876 63.304 16.38 63.304 18.124C63.304 19.868 62.944 21.372 62.224 22.636C61.52 23.884 60.496 24.844 59.152 25.516C57.824 26.172 56.232 26.5 54.376 26.5H51.184ZM54.136 24.028C56.136 24.028 57.624 23.548 58.6 22.588C59.576 21.612 60.064 20.124 60.064 18.124C60.064 16.124 59.568 14.636 58.576 13.66C57.6 12.668 56.12 12.172 54.136 12.172H51.568C51.248 12.172 50.992 12.276 50.8 12.484C50.624 12.692 50.536 12.98 50.536 13.348V22.852C50.536 23.22 50.624 23.508 50.8 23.716C50.992 23.924 51.248 24.028 51.568 24.028H54.136ZM72.0544 26.74C70.6784 26.74 69.4784 26.492 68.4544 25.996C67.4304 25.5 66.6384 24.804 66.0784 23.908C65.5344 22.996 65.2624 21.932 65.2624 20.716C65.2624 18.748 65.8304 17.22 66.9664 16.132C68.1184 15.044 69.7344 14.5 71.8144 14.5C73.0944 14.5 74.2224 14.7 75.1984 15.1C76.1904 15.5 76.9584 16.06 77.5024 16.78C78.0624 17.484 78.3424 18.292 78.3424 19.204C78.3424 19.972 78.0944 20.564 77.5984 20.98C77.1184 21.396 76.4304 21.604 75.5344 21.604H68.3104C68.3104 22.5 68.6224 23.18 69.2464 23.644C69.8864 24.092 70.8224 24.316 72.0544 24.316C73.3504 24.316 74.4544 24.028 75.3664 23.452C75.8784 23.132 76.2784 22.972 76.5664 22.972C76.8384 22.972 77.1024 23.1 77.3584 23.356C77.6304 23.628 77.7664 23.924 77.7664 24.244C77.7664 24.628 77.6064 24.932 77.2864 25.156C76.6144 25.668 75.8304 26.06 74.9344 26.332C74.0384 26.604 73.0784 26.74 72.0544 26.74ZM74.5744 19.396C74.8464 19.396 75.0384 19.348 75.1504 19.252C75.2624 19.14 75.3184 18.964 75.3184 18.724C75.3184 18.164 74.9984 17.724 74.3584 17.404C73.7344 17.084 72.8864 16.924 71.8144 16.924C70.7424 16.924 69.8944 17.148 69.2704 17.596C68.6624 18.044 68.3584 18.644 68.3584 19.396H74.5744ZM86.0416 26.74C84.1376 26.74 82.8176 25.676 82.0816 23.548L79.5376 16.252C79.4896 16.108 79.4656 15.972 79.4656 15.844C79.4656 15.476 79.6256 15.164 79.9456 14.908C80.2816 14.652 80.7136 14.524 81.2416 14.524C81.5616 14.524 81.8336 14.596 82.0576 14.74C82.2816 14.884 82.4416 15.084 82.5376 15.34L85.2256 23.14C85.3536 23.54 85.4816 23.828 85.6096 24.004C85.7376 24.164 85.8816 24.244 86.0416 24.244C86.2016 24.244 86.3456 24.164 86.4736 24.004C86.6016 23.828 86.7296 23.54 86.8576 23.14L89.5456 15.34C89.6416 15.084 89.8016 14.884 90.0256 14.74C90.2496 14.596 90.5216 14.524 90.8416 14.524C91.3856 14.524 91.8176 14.652 92.1376 14.908C92.4576 15.148 92.6176 15.46 92.6176 15.844C92.6176 15.972 92.5936 16.108 92.5456 16.252L90.0016 23.548C89.2656 25.676 87.9456 26.74 86.0416 26.74ZM96.5564 13.012C95.9644 13.012 95.4844 12.852 95.1164 12.532C94.7644 12.196 94.5884 11.764 94.5884 11.236C94.5884 10.708 94.7644 10.284 95.1164 9.964C95.4844 9.628 95.9644 9.46 96.5564 9.46C97.1484 9.46 97.6284 9.628 97.9964 9.964C98.3804 10.284 98.5724 10.708 98.5724 11.236C98.5724 11.764 98.3804 12.196 97.9964 12.532C97.6284 12.852 97.1484 13.012 96.5564 13.012ZM96.5804 26.74C96.0844 26.74 95.7004 26.612 95.4284 26.356C95.1564 26.1 95.0204 25.748 95.0204 25.3V15.94C95.0204 15.492 95.1564 15.14 95.4284 14.884C95.7004 14.628 96.0844 14.5 96.5804 14.5C97.0604 14.5 97.4444 14.628 97.7324 14.884C98.0204 15.14 98.1644 15.492 98.1644 15.94V25.3C98.1644 25.748 98.0204 26.1 97.7324 26.356C97.4444 26.612 97.0604 26.74 96.5804 26.74ZM107.304 26.74C105.16 26.74 103.496 26.204 102.312 25.132C101.128 24.044 100.536 22.532 100.536 20.596C100.536 18.66 101.128 17.164 102.312 16.108C103.496 15.036 105.16 14.5 107.304 14.5C108.44 14.5 109.464 14.692 110.376 15.076C111.304 15.444 112.032 15.972 112.56 16.66C112.752 16.9 112.848 17.156 112.848 17.428C112.848 17.844 112.632 18.212 112.2 18.532C112.008 18.676 111.768 18.748 111.48 18.748C111.256 18.748 111.024 18.7 110.784 18.604C110.544 18.492 110.336 18.34 110.16 18.148C109.84 17.78 109.424 17.5 108.912 17.308C108.416 17.1 107.88 16.996 107.304 16.996C106.168 16.996 105.28 17.316 104.64 17.956C104.016 18.58 103.704 19.46 103.704 20.596C103.704 21.764 104.016 22.668 104.64 23.308C105.28 23.932 106.168 24.244 107.304 24.244C108.568 24.244 109.648 23.82 110.544 22.972C110.992 22.524 111.432 22.3 111.864 22.3C112.152 22.3 112.416 22.396 112.656 22.588C113.04 22.892 113.232 23.26 113.232 23.692C113.232 23.964 113.12 24.228 112.896 24.484C112.16 25.268 111.336 25.844 110.424 26.212C109.528 26.564 108.488 26.74 107.304 26.74ZM121.742 26.74C120.366 26.74 119.166 26.492 118.142 25.996C117.118 25.5 116.326 24.804 115.766 23.908C115.222 22.996 114.95 21.932 114.95 20.716C114.95 18.748 115.518 17.22 116.654 16.132C117.806 15.044 119.422 14.5 121.502 14.5C122.782 14.5 123.91 14.7 124.886 15.1C125.878 15.5 126.646 16.06 127.19 16.78C127.75 17.484 128.03 18.292 128.03 19.204C128.03 19.972 127.782 20.564 127.286 20.98C126.806 21.396 126.118 21.604 125.222 21.604H117.998C117.998 22.5 118.31 23.18 118.934 23.644C119.574 24.092 120.51 24.316 121.742 24.316C123.038 24.316 124.142 24.028 125.054 23.452C125.566 23.132 125.966 22.972 126.254 22.972C126.526 22.972 126.79 23.1 127.046 23.356C127.318 23.628 127.454 23.924 127.454 24.244C127.454 24.628 127.294 24.932 126.974 25.156C126.302 25.668 125.518 26.06 124.622 26.332C123.726 26.604 122.766 26.74 121.742 26.74ZM124.262 19.396C124.534 19.396 124.726 19.348 124.838 19.252C124.95 19.14 125.006 18.964 125.006 18.724C125.006 18.164 124.686 17.724 124.046 17.404C123.422 17.084 122.574 16.924 121.502 16.924C120.43 16.924 119.582 17.148 118.958 17.596C118.35 18.044 118.046 18.644 118.046 19.396H124.262ZM134.082 26.5C132.866 26.5 131.922 26.18 131.25 25.54C130.578 24.9 130.242 24.004 130.242 22.852V13.252C130.242 12.132 130.562 11.26 131.202 10.636C131.858 10.012 132.762 9.7 133.914 9.7H137.274C139.114 9.7 140.706 10.036 142.05 10.708C143.394 11.38 144.418 12.348 145.122 13.612C145.842 14.876 146.202 16.38 146.202 18.124C146.202 19.868 145.842 21.372 145.122 22.636C144.418 23.884 143.394 24.844 142.05 25.516C140.722 26.172 139.13 26.5 137.274 26.5H134.082ZM137.034 24.028C139.034 24.028 140.522 23.548 141.498 22.588C142.474 21.612 142.962 20.124 142.962 18.124C142.962 16.124 142.466 14.636 141.474 13.66C140.498 12.668 139.018 12.172 137.034 12.172H134.466C134.146 12.172 133.89 12.276 133.698 12.484C133.522 12.692 133.434 12.98 133.434 13.348V22.852C133.434 23.22 133.522 23.508 133.698 23.716C133.89 23.924 134.146 24.028 134.466 24.028H137.034ZM150.369 13.012C149.777 13.012 149.297 12.852 148.929 12.532C148.577 12.196 148.401 11.764 148.401 11.236C148.401 10.708 148.577 10.284 148.929 9.964C149.297 9.628 149.777 9.46 150.369 9.46C150.961 9.46 151.441 9.628 151.809 9.964C152.193 10.284 152.385 10.708 152.385 11.236C152.385 11.764 152.193 12.196 151.809 12.532C151.441 12.852 150.961 13.012 150.369 13.012ZM150.393 26.74C149.897 26.74 149.513 26.612 149.241 26.356C148.969 26.1 148.833 25.748 148.833 25.3V15.94C148.833 15.492 148.969 15.14 149.241 14.884C149.513 14.628 149.897 14.5 150.393 14.5C150.873 14.5 151.257 14.628 151.545 14.884C151.833 15.14 151.977 15.492 151.977 15.94V25.3C151.977 25.748 151.833 26.1 151.545 26.356C151.257 26.612 150.873 26.74 150.393 26.74ZM159.388 26.74C158.396 26.74 157.516 26.572 156.748 26.236C155.996 25.9 155.404 25.436 154.972 24.844C154.556 24.236 154.348 23.54 154.348 22.756C154.348 21.572 154.836 20.628 155.812 19.924C156.804 19.22 158.14 18.868 159.82 18.868C161.276 18.868 162.444 19.18 163.324 19.804V19.228C163.324 18.476 163.092 17.9 162.628 17.5C162.164 17.1 161.492 16.9 160.612 16.9C159.3 16.9 158.172 17.18 157.228 17.74C156.828 17.964 156.484 18.076 156.196 18.076C155.844 18.076 155.532 17.916 155.26 17.596C155.084 17.372 154.996 17.14 154.996 16.9C154.996 16.5 155.204 16.148 155.62 15.844C156.196 15.428 156.924 15.1 157.804 14.86C158.684 14.62 159.612 14.5 160.588 14.5C162.444 14.5 163.9 14.924 164.956 15.772C166.028 16.604 166.564 17.756 166.564 19.228V25.396C166.564 25.812 166.42 26.14 166.132 26.38C165.86 26.62 165.484 26.74 165.004 26.74C164.508 26.74 164.124 26.628 163.852 26.404C163.58 26.18 163.444 25.86 163.444 25.444V25.18C162.532 26.22 161.18 26.74 159.388 26.74ZM160.132 24.532C161.14 24.532 161.924 24.38 162.484 24.076C163.06 23.756 163.348 23.316 163.348 22.756C163.348 22.228 163.06 21.804 162.484 21.484C161.908 21.164 161.14 21.004 160.18 21.004C159.316 21.004 158.644 21.156 158.164 21.46C157.7 21.764 157.468 22.196 157.468 22.756C157.468 23.316 157.7 23.756 158.164 24.076C158.628 24.38 159.284 24.532 160.132 24.532ZM170.211 26.74C169.715 26.74 169.331 26.612 169.059 26.356C168.787 26.1 168.651 25.748 168.651 25.3V15.94C168.651 15.476 168.779 15.124 169.035 14.884C169.307 14.628 169.683 14.5 170.163 14.5C170.643 14.5 171.019 14.628 171.291 14.884C171.563 15.14 171.699 15.492 171.699 15.94V16.732C172.195 16.092 172.771 15.604 173.427 15.268C174.099 14.916 174.819 14.74 175.587 14.74H176.115C176.627 14.74 177.019 14.852 177.291 15.076C177.579 15.284 177.723 15.588 177.723 15.988C177.723 16.388 177.579 16.7 177.291 16.924C177.019 17.132 176.627 17.236 176.115 17.236H175.299C174.227 17.236 173.371 17.58 172.731 18.268C172.107 18.94 171.795 19.868 171.795 21.052V25.3C171.795 25.748 171.651 26.1 171.363 26.356C171.075 26.612 170.691 26.74 170.211 26.74ZM185.173 32.5C184.005 32.5 182.941 32.316 181.981 31.948C181.037 31.596 180.309 31.1 179.797 30.46C179.589 30.188 179.485 29.908 179.485 29.62C179.485 29.236 179.669 28.884 180.037 28.564C180.277 28.372 180.541 28.276 180.829 28.276C181.261 28.276 181.677 28.492 182.077 28.924C182.765 29.66 183.773 30.028 185.101 30.028C186.237 30.028 187.093 29.724 187.669 29.116C188.261 28.524 188.557 27.652 188.557 26.5V25.492C188.173 25.86 187.677 26.164 187.069 26.404C186.461 26.628 185.885 26.74 185.341 26.74C183.341 26.74 181.781 26.212 180.661 25.156C179.541 24.084 178.981 22.596 178.981 20.692V15.844C178.981 15.46 179.133 15.14 179.437 14.884C179.741 14.628 180.117 14.5 180.565 14.5C180.997 14.5 181.365 14.636 181.669 14.908C181.973 15.164 182.125 15.476 182.125 15.844V20.692C182.125 21.844 182.405 22.74 182.965 23.38C183.541 24.02 184.333 24.34 185.341 24.34C186.317 24.34 187.077 24.02 187.621 23.38C188.165 22.74 188.437 21.844 188.437 20.692V16.108C188.437 15.596 188.573 15.204 188.845 14.932C189.133 14.644 189.525 14.5 190.021 14.5C190.517 14.5 190.901 14.644 191.173 14.932C191.445 15.204 191.581 15.596 191.581 16.108V26.092C191.581 28.108 191.013 29.676 189.877 30.796C188.757 31.932 187.189 32.5 185.173 32.5Z" fill="#282828"/>
</svg>
