<svg width="36" height="36" viewBox="0 0 36 36" fill="none" xmlns="http://www.w3.org/2000/svg">
<path d="M32.741 23.1821H3.07266V6.76057C3.07266 5.58284 4.02891 4.62659 5.20664 4.62659H30.6105C31.7883 4.62659 32.7445 5.58284 32.7445 6.76057V23.1821H32.741Z" fill="#EDF2FB"/>
<path d="M32.741 23.6391H3.07266C2.81953 23.6391 2.61563 23.4352 2.61563 23.1821V6.76057C2.61563 5.33323 3.77578 4.16956 5.20664 4.16956H30.6105C32.0379 4.16956 33.2016 5.32971 33.2016 6.76057V23.1821C33.198 23.4352 32.9941 23.6391 32.741 23.6391ZM3.52969 22.725H32.284V6.76057C32.284 5.83596 31.5316 5.08362 30.607 5.08362H5.20664C4.28203 5.08362 3.52969 5.83596 3.52969 6.76057V22.725Z" fill="#282828"/>
<path d="M30.607 26.7961H5.20664C4.02891 26.7961 3.07266 25.8398 3.07266 24.6621V22.9043H32.741V24.6621C32.741 25.8434 31.7848 26.7961 30.607 26.7961Z" fill="#B2C8BA"/>
<path d="M30.607 27.2531H5.20664C3.7793 27.2531 2.61563 26.093 2.61563 24.6621V22.4473H33.198V24.6621C33.198 26.093 32.0379 27.2531 30.607 27.2531ZM3.52969 23.3648V24.6656C3.52969 25.5902 4.28203 26.3426 5.20664 26.3426H30.6105C31.5352 26.3426 32.2875 25.5902 32.2875 24.6656V23.3648H3.52969Z" fill="#282828"/>
<path d="M16.977 24.6199C16.977 24.867 17.0751 25.1039 17.2498 25.2786C17.4245 25.4534 17.6615 25.5515 17.9086 25.5515C18.1557 25.5515 18.3926 25.4534 18.5674 25.2786C18.7421 25.1039 18.8402 24.867 18.8402 24.6199C18.8402 24.3728 18.7421 24.1358 18.5674 23.9611C18.3926 23.7864 18.1557 23.6882 17.9086 23.6882C17.6615 23.6882 17.4245 23.7864 17.2498 23.9611C17.0751 24.1358 16.977 24.3728 16.977 24.6199Z" fill="#EDF2FB"/>
<path d="M8.54297 12.4242C8.54297 13.3799 8.92262 14.2965 9.59841 14.9723C10.2742 15.6481 11.1908 16.0277 12.1465 16.0277C13.1022 16.0277 14.0188 15.6481 14.6946 14.9723C15.3703 14.2965 15.75 13.3799 15.75 12.4242C15.75 11.4685 15.3703 10.5519 14.6946 9.87612C14.0188 9.20033 13.1022 8.82068 12.1465 8.82068C11.1908 8.82068 10.2742 9.20033 9.59841 9.87612C8.92262 10.5519 8.54297 11.4685 8.54297 12.4242Z" fill="#EDF2FB"/>
<path d="M12.1465 16.4847C9.90703 16.4847 8.08594 14.6636 8.08594 12.4242C8.08594 10.1847 9.90703 8.36365 12.1465 8.36365C14.3859 8.36365 16.207 10.1847 16.207 12.4242C16.207 14.6636 14.3895 16.4847 12.1465 16.4847ZM12.1465 9.27419C10.4098 9.27419 9 10.6875 9 12.4207C9 14.1539 10.4133 15.5672 12.1465 15.5672C13.8797 15.5672 15.293 14.1539 15.293 12.4207C15.293 10.6875 13.8832 9.27419 12.1465 9.27419Z" fill="#B2C8BA"/>
<path d="M11.1516 12.4242C11.1516 12.6881 11.2564 12.9412 11.443 13.1278C11.6296 13.3143 11.8826 13.4192 12.1465 13.4192C12.4104 13.4192 12.6634 13.3143 12.85 13.1278C13.0366 12.9412 13.1414 12.6881 13.1414 12.4242C13.1414 12.1604 13.0366 11.9073 12.85 11.7207C12.6634 11.5341 12.4104 11.4293 12.1465 11.4293C11.8826 11.4293 11.6296 11.5341 11.443 11.7207C11.2564 11.9073 11.1516 12.1604 11.1516 12.4242Z" fill="#282828"/>
<path d="M20.0637 12.4242C20.0637 13.3799 20.4433 14.2965 21.1191 14.9723C21.7949 15.6481 22.7115 16.0277 23.6672 16.0277C24.6229 16.0277 25.5395 15.6481 26.2153 14.9723C26.891 14.2965 27.2707 13.3799 27.2707 12.4242C27.2707 11.4685 26.891 10.5519 26.2153 9.87612C25.5395 9.20033 24.6229 8.82068 23.6672 8.82068C22.7115 8.82068 21.7949 9.20033 21.1191 9.87612C20.4433 10.5519 20.0637 11.4685 20.0637 12.4242Z" fill="#EDF2FB"/>
<path d="M23.6672 16.4847C21.4277 16.4847 19.6066 14.6636 19.6066 12.4242C19.6066 10.1847 21.4277 8.36365 23.6672 8.36365C25.9066 8.36365 27.7277 10.1847 27.7277 12.4242C27.7277 14.6636 25.9066 16.4847 23.6672 16.4847ZM23.6672 9.27419C21.9305 9.27419 20.5207 10.6875 20.5207 12.4207C20.5207 14.1539 21.934 15.5672 23.6672 15.5672C25.4004 15.5672 26.8137 14.1539 26.8137 12.4207C26.8137 10.6875 25.4004 9.27419 23.6672 9.27419Z" fill="#B2C8BA"/>
<path d="M22.6723 12.4242C22.6723 12.6881 22.7771 12.9412 22.9637 13.1278C23.1503 13.3143 23.4033 13.4192 23.6672 13.4192C23.9311 13.4192 24.1841 13.3143 24.3707 13.1278C24.5573 12.9412 24.6621 12.6881 24.6621 12.4242C24.6621 12.1604 24.5573 11.9073 24.3707 11.7207C24.1841 11.5341 23.9311 11.4293 23.6672 11.4293C23.4033 11.4293 23.1503 11.5341 22.9637 11.7207C22.7771 11.9073 22.6723 12.1604 22.6723 12.4242Z" fill="#282828"/>
<path d="M19.7191 16.3688C19.7191 17.3637 18.9035 18.1793 17.9086 18.1793C16.9137 18.1793 16.098 17.3637 16.098 16.3688" fill="#EDF2FB"/>
<path d="M17.9086 18.6399C16.657 18.6399 15.641 17.6204 15.641 16.3723C15.641 16.1192 15.8449 15.9153 16.098 15.9153C16.3512 15.9153 16.5551 16.1192 16.5551 16.3723C16.5551 17.1211 17.1633 17.7258 17.9086 17.7258C18.6574 17.7258 19.2621 17.1176 19.2621 16.3723C19.2621 16.1192 19.466 15.9153 19.7191 15.9153C19.9723 15.9153 20.1762 16.1192 20.1762 16.3723C20.1762 17.6204 19.1566 18.6399 17.9086 18.6399Z" fill="#282828"/>
<path d="M14.8922 26.7961H20.9215V29.9461H14.8922V26.7961Z" fill="#EDF2FB"/>
<path d="M20.9215 30.4032H14.8922C14.6391 30.4032 14.4352 30.1993 14.4352 29.9461V26.7961C14.4352 26.543 14.6391 26.3391 14.8922 26.3391H20.9215C21.1746 26.3391 21.3785 26.543 21.3785 26.7961V29.9461C21.3785 30.1993 21.1746 30.4032 20.9215 30.4032ZM15.3492 29.4891H20.4645V27.2532H15.3492V29.4891Z" fill="#282828"/>
<path d="M23.4598 31.602H12.3539C11.693 31.602 11.1516 31.0605 11.1516 30.3996C11.1516 29.7387 11.693 29.1973 12.3539 29.1973H23.4563C24.1172 29.1973 24.6586 29.7387 24.6586 30.3996C24.6586 31.0641 24.1207 31.602 23.4598 31.602Z" fill="#EDF2FB"/>
<path d="M23.4598 32.059H12.3539C11.4398 32.059 10.6945 31.3137 10.6945 30.3996C10.6945 29.4855 11.4398 28.7402 12.3539 28.7402H23.4563C24.3703 28.7402 25.1156 29.4855 25.1156 30.3996C25.1156 31.3137 24.3738 32.059 23.4598 32.059ZM12.3539 29.6578C11.9426 29.6578 11.6086 29.9918 11.6086 30.4031C11.6086 30.8145 11.9426 31.1484 12.3539 31.1484H23.4563C23.8676 31.1484 24.2016 30.8145 24.2016 30.4031C24.2016 29.9918 23.8676 29.6578 23.4563 29.6578H12.3539Z" fill="#282828"/>
</svg>
