<svg width="234" height="40" viewBox="0 0 234 40" fill="none" xmlns="http://www.w3.org/2000/svg">
<path d="M36.3788 25.7578H3.41394V7.51172C3.41394 6.20312 4.47644 5.14062 5.78503 5.14062H34.0116C35.3202 5.14062 36.3827 6.20312 36.3827 7.51172V25.7578H36.3788Z" fill="#EDF2FB"/>
<path d="M36.3788 26.2656H3.41394C3.13269 26.2656 2.90613 26.0391 2.90613 25.7578V7.51172C2.90613 5.92578 4.19519 4.63281 5.78503 4.63281H34.0116C35.5975 4.63281 36.8905 5.92188 36.8905 7.51172V25.7578C36.8866 26.0391 36.66 26.2656 36.3788 26.2656ZM3.92175 25.25H35.871V7.51172C35.871 6.48438 35.035 5.64844 34.0077 5.64844H5.78503C4.75769 5.64844 3.92175 6.48438 3.92175 7.51172V25.25Z" fill="#2D3250"/>
<path d="M34.0077 29.7734H5.78503C4.47644 29.7734 3.41394 28.7109 3.41394 27.4023V25.4492H36.3788V27.4023C36.3788 28.7148 35.3163 29.7734 34.0077 29.7734Z" fill="#2D3250"/>
<path d="M34.0077 30.2812H5.78503C4.1991 30.2812 2.90613 28.9922 2.90613 27.4023V24.9414H36.8866V27.4023C36.8866 28.9922 35.5975 30.2812 34.0077 30.2812ZM3.92175 25.9609V27.4062C3.92175 28.4336 4.75769 29.2695 5.78503 29.2695H34.0116C35.0389 29.2695 35.8749 28.4336 35.8749 27.4062V25.9609H3.92175Z" fill="#2D3250"/>
<path d="M18.8632 27.3555C18.8632 27.63 18.9722 27.8933 19.1664 28.0874C19.3605 28.2816 19.6238 28.3906 19.8983 28.3906C20.1729 28.3906 20.4362 28.2816 20.6303 28.0874C20.8244 27.8933 20.9335 27.63 20.9335 27.3555C20.9335 27.0809 20.8244 26.8176 20.6303 26.6235C20.4362 26.4294 20.1729 26.3203 19.8983 26.3203C19.6238 26.3203 19.3605 26.4294 19.1664 26.6235C18.9722 26.8176 18.8632 27.0809 18.8632 27.3555Z" fill="#EDF2FB"/>
<path d="M9.49197 13.8047C9.49197 14.8666 9.91381 15.885 10.6647 16.6359C11.4156 17.3868 12.434 17.8086 13.4959 17.8086C14.5578 17.8086 15.5762 17.3868 16.3271 16.6359C17.0779 15.885 17.4998 14.8666 17.4998 13.8047C17.4998 12.7428 17.0779 11.7244 16.3271 10.9735C15.5762 10.2226 14.5578 9.80078 13.4959 9.80078C12.434 9.80078 11.4156 10.2226 10.6647 10.9735C9.91381 11.7244 9.49197 12.7428 9.49197 13.8047Z" fill="#EDF2FB"/>
<path d="M13.4959 18.3164C11.0076 18.3164 8.98416 16.293 8.98416 13.8047C8.98416 11.3164 11.0076 9.29297 13.4959 9.29297C15.9842 9.29297 18.0076 11.3164 18.0076 13.8047C18.0076 16.293 15.9881 18.3164 13.4959 18.3164ZM13.4959 10.3047C11.5662 10.3047 9.99979 11.875 9.99979 13.8008C9.99979 15.7266 11.5701 17.2969 13.4959 17.2969C15.4217 17.2969 16.992 15.7266 16.992 13.8008C16.992 11.875 15.4256 10.3047 13.4959 10.3047Z" fill="#2D3250"/>
<path d="M12.3902 13.8047C12.3902 14.0979 12.5067 14.3791 12.714 14.5864C12.9213 14.7937 13.2025 14.9102 13.4957 14.9102C13.7889 14.9102 14.07 14.7937 14.2773 14.5864C14.4847 14.3791 14.6011 14.0979 14.6011 13.8047C14.6011 13.5115 14.4847 13.2303 14.2773 13.023C14.07 12.8157 13.7889 12.6992 13.4957 12.6992C13.2025 12.6992 12.9213 12.8157 12.714 13.023C12.5067 13.2303 12.3902 13.5115 12.3902 13.8047Z" fill="#2D3250"/>
<path d="M22.2925 13.8047C22.2925 14.8666 22.7144 15.885 23.4653 16.6359C24.2161 17.3868 25.2345 17.8086 26.2964 17.8086C27.3583 17.8086 28.3768 17.3868 29.1276 16.6359C29.8785 15.885 30.3004 14.8666 30.3004 13.8047C30.3004 12.7428 29.8785 11.7244 29.1276 10.9735C28.3768 10.2226 27.3583 9.80078 26.2964 9.80078C25.2345 9.80078 24.2161 10.2226 23.4653 10.9735C22.7144 11.7244 22.2925 12.7428 22.2925 13.8047Z" fill="#EDF2FB"/>
<path d="M26.2964 18.3164C23.8082 18.3164 21.7847 16.293 21.7847 13.8047C21.7847 11.3164 23.8082 9.29297 26.2964 9.29297C28.7847 9.29297 30.8082 11.3164 30.8082 13.8047C30.8082 16.293 28.7847 18.3164 26.2964 18.3164ZM26.2964 10.3047C24.3668 10.3047 22.8004 11.875 22.8004 13.8008C22.8004 15.7266 24.3707 17.2969 26.2964 17.2969C28.2222 17.2969 29.7925 15.7266 29.7925 13.8008C29.7925 11.875 28.2222 10.3047 26.2964 10.3047Z" fill="#2D3250"/>
<path d="M25.1913 13.8047C25.1913 14.0979 25.3078 14.3791 25.5151 14.5864C25.7224 14.7937 26.0036 14.9102 26.2968 14.9102C26.5899 14.9102 26.8711 14.7937 27.0784 14.5864C27.2858 14.3791 27.4022 14.0979 27.4022 13.8047C27.4022 13.5115 27.2858 13.2303 27.0784 13.023C26.8711 12.8157 26.5899 12.6992 26.2968 12.6992C26.0036 12.6992 25.7224 12.8157 25.5151 13.023C25.3078 13.2303 25.1913 13.5115 25.1913 13.8047Z" fill="#2D3250"/>
<path d="M21.91 18.1875C21.91 19.293 21.0038 20.1992 19.8983 20.1992C18.7928 20.1992 17.8866 19.293 17.8866 18.1875" fill="#EDF2FB"/>
<path d="M19.8983 20.7109C18.5077 20.7109 17.3788 19.5781 17.3788 18.1914C17.3788 17.9102 17.6053 17.6836 17.8866 17.6836C18.1678 17.6836 18.3944 17.9102 18.3944 18.1914C18.3944 19.0234 19.0702 19.6953 19.8983 19.6953C20.7303 19.6953 21.4022 19.0195 21.4022 18.1914C21.4022 17.9102 21.6288 17.6836 21.91 17.6836C22.1913 17.6836 22.4178 17.9102 22.4178 18.1914C22.4178 19.5781 21.285 20.7109 19.8983 20.7109Z" fill="#2D3250"/>
<path d="M16.5465 29.7734H23.2458V33.2734H16.5465V29.7734Z" fill="#EDF2FB"/>
<path d="M23.2458 33.7812H16.5465C16.2653 33.7812 16.0387 33.5547 16.0387 33.2734V29.7734C16.0387 29.4922 16.2653 29.2656 16.5465 29.2656H23.2458C23.527 29.2656 23.7536 29.4922 23.7536 29.7734V33.2734C23.7536 33.5547 23.527 33.7812 23.2458 33.7812ZM17.0544 32.7656H22.7379V30.2813H17.0544V32.7656Z" fill="#2D3250"/>
<path d="M26.066 35.1133H13.7261C12.9918 35.1133 12.3902 34.5117 12.3902 33.7773C12.3902 33.043 12.9918 32.4414 13.7261 32.4414H26.0621C26.7964 32.4414 27.398 33.043 27.398 33.7773C27.398 34.5156 26.8004 35.1133 26.066 35.1133Z" fill="#EDF2FB"/>
<path d="M26.066 35.6211H13.7261C12.7105 35.6211 11.8824 34.793 11.8824 33.7773C11.8824 32.7617 12.7105 31.9336 13.7261 31.9336H26.0621C27.0777 31.9336 27.9058 32.7617 27.9058 33.7773C27.9058 34.793 27.0816 35.6211 26.066 35.6211ZM13.7261 32.9531C13.2691 32.9531 12.898 33.3242 12.898 33.7812C12.898 34.2383 13.2691 34.6094 13.7261 34.6094H26.0621C26.5191 34.6094 26.8902 34.2383 26.8902 33.7812C26.8902 33.3242 26.5191 32.9531 26.0621 32.9531H13.7261Z" fill="#2D3250"/>
<path d="M56.48 31.5C54.96 31.5 53.78 31.1 52.94 30.3C52.1 29.5 51.68 28.38 51.68 26.94V14.94C51.68 13.54 52.08 12.45 52.88 11.67C53.7 10.89 54.83 10.5 56.27 10.5H60.47C62.77 10.5 64.76 10.92 66.44 11.76C68.12 12.6 69.4 13.81 70.28 15.39C71.18 16.97 71.63 18.85 71.63 21.03C71.63 23.21 71.18 25.09 70.28 26.67C69.4 28.23 68.12 29.43 66.44 30.27C64.78 31.09 62.79 31.5 60.47 31.5H56.48ZM60.17 28.41C62.67 28.41 64.53 27.81 65.75 26.61C66.97 25.39 67.58 23.53 67.58 21.03C67.58 18.53 66.96 16.67 65.72 15.45C64.5 14.21 62.65 13.59 60.17 13.59H56.96C56.56 13.59 56.24 13.72 56 13.98C55.78 14.24 55.67 14.6 55.67 15.06V26.94C55.67 27.4 55.78 27.76 56 28.02C56.24 28.28 56.56 28.41 56.96 28.41H60.17ZM82.568 31.8C80.848 31.8 79.348 31.49 78.068 30.87C76.788 30.25 75.798 29.38 75.098 28.26C74.418 27.12 74.078 25.79 74.078 24.27C74.078 21.81 74.788 19.9 76.208 18.54C77.648 17.18 79.668 16.5 82.268 16.5C83.868 16.5 85.278 16.75 86.498 17.25C87.738 17.75 88.698 18.45 89.378 19.35C90.078 20.23 90.428 21.24 90.428 22.38C90.428 23.34 90.118 24.08 89.498 24.6C88.898 25.12 88.038 25.38 86.918 25.38H77.888C77.888 26.5 78.278 27.35 79.058 27.93C79.858 28.49 81.028 28.77 82.568 28.77C84.188 28.77 85.568 28.41 86.708 27.69C87.348 27.29 87.848 27.09 88.208 27.09C88.548 27.09 88.878 27.25 89.198 27.57C89.538 27.91 89.708 28.28 89.708 28.68C89.708 29.16 89.508 29.54 89.108 29.82C88.268 30.46 87.288 30.95 86.168 31.29C85.048 31.63 83.848 31.8 82.568 31.8ZM85.718 22.62C86.058 22.62 86.298 22.56 86.438 22.44C86.578 22.3 86.648 22.08 86.648 21.78C86.648 21.08 86.248 20.53 85.448 20.13C84.668 19.73 83.608 19.53 82.268 19.53C80.928 19.53 79.868 19.81 79.088 20.37C78.328 20.93 77.948 21.68 77.948 22.62H85.718ZM100.052 31.8C97.672 31.8 96.022 30.47 95.102 27.81L91.922 18.69C91.862 18.51 91.832 18.34 91.832 18.18C91.832 17.72 92.032 17.33 92.432 17.01C92.852 16.69 93.392 16.53 94.052 16.53C94.452 16.53 94.792 16.62 95.072 16.8C95.352 16.98 95.552 17.23 95.672 17.55L99.032 27.3C99.192 27.8 99.352 28.16 99.512 28.38C99.672 28.58 99.852 28.68 100.052 28.68C100.252 28.68 100.432 28.58 100.592 28.38C100.752 28.16 100.912 27.8 101.072 27.3L104.432 17.55C104.552 17.23 104.752 16.98 105.032 16.8C105.312 16.62 105.652 16.53 106.052 16.53C106.732 16.53 107.272 16.69 107.672 17.01C108.072 17.31 108.272 17.7 108.272 18.18C108.272 18.34 108.242 18.51 108.182 18.69L105.002 27.81C104.082 30.47 102.432 31.8 100.052 31.8ZM113.195 14.64C112.455 14.64 111.855 14.44 111.395 14.04C110.955 13.62 110.735 13.08 110.735 12.42C110.735 11.76 110.955 11.23 111.395 10.83C111.855 10.41 112.455 10.2 113.195 10.2C113.935 10.2 114.535 10.41 114.995 10.83C115.475 11.23 115.715 11.76 115.715 12.42C115.715 13.08 115.475 13.62 114.995 14.04C114.535 14.44 113.935 14.64 113.195 14.64ZM113.225 31.8C112.605 31.8 112.125 31.64 111.785 31.32C111.445 31 111.275 30.56 111.275 30V18.3C111.275 17.74 111.445 17.3 111.785 16.98C112.125 16.66 112.605 16.5 113.225 16.5C113.825 16.5 114.305 16.66 114.665 16.98C115.025 17.3 115.205 17.74 115.205 18.3V30C115.205 30.56 115.025 31 114.665 31.32C114.305 31.64 113.825 31.8 113.225 31.8ZM126.63 31.8C123.95 31.8 121.87 31.13 120.39 29.79C118.91 28.43 118.17 26.54 118.17 24.12C118.17 21.7 118.91 19.83 120.39 18.51C121.87 17.17 123.95 16.5 126.63 16.5C128.05 16.5 129.33 16.74 130.47 17.22C131.63 17.68 132.54 18.34 133.2 19.2C133.44 19.5 133.56 19.82 133.56 20.16C133.56 20.68 133.29 21.14 132.75 21.54C132.51 21.72 132.21 21.81 131.85 21.81C131.57 21.81 131.28 21.75 130.98 21.63C130.68 21.49 130.42 21.3 130.2 21.06C129.8 20.6 129.28 20.25 128.64 20.01C128.02 19.75 127.35 19.62 126.63 19.62C125.21 19.62 124.1 20.02 123.3 20.82C122.52 21.6 122.13 22.7 122.13 24.12C122.13 25.58 122.52 26.71 123.3 27.51C124.1 28.29 125.21 28.68 126.63 28.68C128.21 28.68 129.56 28.15 130.68 27.09C131.24 26.53 131.79 26.25 132.33 26.25C132.69 26.25 133.02 26.37 133.32 26.61C133.8 26.99 134.04 27.45 134.04 27.99C134.04 28.33 133.9 28.66 133.62 28.98C132.7 29.96 131.67 30.68 130.53 31.14C129.41 31.58 128.11 31.8 126.63 31.8ZM144.677 31.8C142.957 31.8 141.457 31.49 140.177 30.87C138.897 30.25 137.907 29.38 137.207 28.26C136.527 27.12 136.187 25.79 136.187 24.27C136.187 21.81 136.897 19.9 138.317 18.54C139.757 17.18 141.777 16.5 144.377 16.5C145.977 16.5 147.387 16.75 148.607 17.25C149.847 17.75 150.807 18.45 151.487 19.35C152.187 20.23 152.537 21.24 152.537 22.38C152.537 23.34 152.227 24.08 151.607 24.6C151.007 25.12 150.147 25.38 149.027 25.38H139.997C139.997 26.5 140.387 27.35 141.167 27.93C141.967 28.49 143.137 28.77 144.677 28.77C146.297 28.77 147.677 28.41 148.817 27.69C149.457 27.29 149.957 27.09 150.317 27.09C150.657 27.09 150.987 27.25 151.307 27.57C151.647 27.91 151.817 28.28 151.817 28.68C151.817 29.16 151.617 29.54 151.217 29.82C150.377 30.46 149.397 30.95 148.277 31.29C147.157 31.63 145.957 31.8 144.677 31.8ZM147.827 22.62C148.167 22.62 148.407 22.56 148.547 22.44C148.687 22.3 148.757 22.08 148.757 21.78C148.757 21.08 148.357 20.53 147.557 20.13C146.777 19.73 145.717 19.53 144.377 19.53C143.037 19.53 141.977 19.81 141.197 20.37C140.437 20.93 140.057 21.68 140.057 22.62H147.827Z" fill="#2D3250"/>
<path d="M160.103 31.5C158.583 31.5 157.403 31.1 156.563 30.3C155.723 29.5 155.303 28.38 155.303 26.94V14.94C155.303 13.54 155.703 12.45 156.503 11.67C157.323 10.89 158.453 10.5 159.893 10.5H164.093C166.393 10.5 168.383 10.92 170.063 11.76C171.743 12.6 173.023 13.81 173.903 15.39C174.803 16.97 175.253 18.85 175.253 21.03C175.253 23.21 174.803 25.09 173.903 26.67C173.023 28.23 171.743 29.43 170.063 30.27C168.403 31.09 166.413 31.5 164.093 31.5H160.103ZM163.793 28.41C166.293 28.41 168.153 27.81 169.373 26.61C170.593 25.39 171.203 23.53 171.203 21.03C171.203 18.53 170.583 16.67 169.343 15.45C168.123 14.21 166.273 13.59 163.793 13.59H160.583C160.183 13.59 159.863 13.72 159.623 13.98C159.403 14.24 159.293 14.6 159.293 15.06V26.94C159.293 27.4 159.403 27.76 159.623 28.02C159.863 28.28 160.183 28.41 160.583 28.41H163.793ZM180.461 14.64C179.721 14.64 179.121 14.44 178.661 14.04C178.221 13.62 178.001 13.08 178.001 12.42C178.001 11.76 178.221 11.23 178.661 10.83C179.121 10.41 179.721 10.2 180.461 10.2C181.201 10.2 181.801 10.41 182.261 10.83C182.741 11.23 182.981 11.76 182.981 12.42C182.981 13.08 182.741 13.62 182.261 14.04C181.801 14.44 181.201 14.64 180.461 14.64ZM180.491 31.8C179.871 31.8 179.391 31.64 179.051 31.32C178.711 31 178.541 30.56 178.541 30V18.3C178.541 17.74 178.711 17.3 179.051 16.98C179.391 16.66 179.871 16.5 180.491 16.5C181.091 16.5 181.571 16.66 181.931 16.98C182.291 17.3 182.471 17.74 182.471 18.3V30C182.471 30.56 182.291 31 181.931 31.32C181.571 31.64 181.091 31.8 180.491 31.8ZM191.735 31.8C190.495 31.8 189.395 31.59 188.435 31.17C187.495 30.75 186.755 30.17 186.215 29.43C185.695 28.67 185.435 27.8 185.435 26.82C185.435 25.34 186.045 24.16 187.265 23.28C188.505 22.4 190.175 21.96 192.275 21.96C194.095 21.96 195.555 22.35 196.655 23.13V22.41C196.655 21.47 196.365 20.75 195.785 20.25C195.205 19.75 194.365 19.5 193.265 19.5C191.625 19.5 190.215 19.85 189.035 20.55C188.535 20.83 188.105 20.97 187.745 20.97C187.305 20.97 186.915 20.77 186.575 20.37C186.355 20.09 186.245 19.8 186.245 19.5C186.245 19 186.505 18.56 187.025 18.18C187.745 17.66 188.655 17.25 189.755 16.95C190.855 16.65 192.015 16.5 193.235 16.5C195.555 16.5 197.375 17.03 198.695 18.09C200.035 19.13 200.705 20.57 200.705 22.41V30.12C200.705 30.64 200.525 31.05 200.165 31.35C199.825 31.65 199.355 31.8 198.755 31.8C198.135 31.8 197.655 31.66 197.315 31.38C196.975 31.1 196.805 30.7 196.805 30.18V29.85C195.665 31.15 193.975 31.8 191.735 31.8ZM192.665 29.04C193.925 29.04 194.905 28.85 195.605 28.47C196.325 28.07 196.685 27.52 196.685 26.82C196.685 26.16 196.325 25.63 195.605 25.23C194.885 24.83 193.925 24.63 192.725 24.63C191.645 24.63 190.805 24.82 190.205 25.2C189.625 25.58 189.335 26.12 189.335 26.82C189.335 27.52 189.625 28.07 190.205 28.47C190.785 28.85 191.605 29.04 192.665 29.04ZM205.264 31.8C204.644 31.8 204.164 31.64 203.824 31.32C203.484 31 203.314 30.56 203.314 30V18.3C203.314 17.72 203.474 17.28 203.794 16.98C204.134 16.66 204.604 16.5 205.204 16.5C205.804 16.5 206.274 16.66 206.614 16.98C206.954 17.3 207.124 17.74 207.124 18.3V19.29C207.744 18.49 208.464 17.88 209.284 17.46C210.124 17.02 211.024 16.8 211.984 16.8H212.644C213.284 16.8 213.774 16.94 214.114 17.22C214.474 17.48 214.654 17.86 214.654 18.36C214.654 18.86 214.474 19.25 214.114 19.53C213.774 19.79 213.284 19.92 212.644 19.92H211.624C210.284 19.92 209.214 20.35 208.414 21.21C207.634 22.05 207.244 23.21 207.244 24.69V30C207.244 30.56 207.064 31 206.704 31.32C206.344 31.64 205.864 31.8 205.264 31.8ZM223.966 39C222.506 39 221.176 38.77 219.976 38.31C218.796 37.87 217.886 37.25 217.246 36.45C216.986 36.11 216.856 35.76 216.856 35.4C216.856 34.92 217.086 34.48 217.546 34.08C217.846 33.84 218.176 33.72 218.536 33.72C219.076 33.72 219.596 33.99 220.096 34.53C220.956 35.45 222.216 35.91 223.876 35.91C225.296 35.91 226.366 35.53 227.086 34.77C227.826 34.03 228.196 32.94 228.196 31.5V30.24C227.716 30.7 227.096 31.08 226.336 31.38C225.576 31.66 224.856 31.8 224.176 31.8C221.676 31.8 219.726 31.14 218.326 29.82C216.926 28.48 216.226 26.62 216.226 24.24V18.18C216.226 17.7 216.416 17.3 216.796 16.98C217.176 16.66 217.646 16.5 218.206 16.5C218.746 16.5 219.206 16.67 219.586 17.01C219.966 17.33 220.156 17.72 220.156 18.18V24.24C220.156 25.68 220.506 26.8 221.206 27.6C221.926 28.4 222.916 28.8 224.176 28.8C225.396 28.8 226.346 28.4 227.026 27.6C227.706 26.8 228.046 25.68 228.046 24.24V18.51C228.046 17.87 228.216 17.38 228.556 17.04C228.916 16.68 229.406 16.5 230.026 16.5C230.646 16.5 231.126 16.68 231.466 17.04C231.806 17.38 231.976 17.87 231.976 18.51V30.99C231.976 33.51 231.266 35.47 229.846 36.87C228.446 38.29 226.486 39 223.966 39Z" fill="#F6B17A"/>
</svg>
